<svg width="244" height="65" viewBox="0 0 244 65" fill="none" xmlns="http://www.w3.org/2000/svg">
<path opacity="0.1" d="M5.53465 63.1025C5.84125 63.8721 6.71368 64.2474 7.48329 63.9408L20.0247 58.9445C20.7943 58.6379 21.1696 57.7655 20.863 56.9959C20.5564 56.2263 19.684 55.8509 18.9144 56.1575L7.76648 60.5987L3.32529 49.4508C3.01869 48.6812 2.14625 48.3059 1.37666 48.6125C0.607052 48.9191 0.231712 49.7915 0.53831 50.5611L5.53465 63.1025ZM240.132 0.771339C238.466 12.5216 234.376 20.4142 228.554 25.5929C222.718 30.7836 214.964 33.4072 205.669 34.2636C186.972 35.986 162.742 30.5267 137.066 25.3788C111.549 20.2629 84.7051 15.4855 61.2693 18.9152C49.519 20.6348 38.5708 24.4226 29.0522 31.2989C19.5271 38.1799 11.5118 48.0976 5.55024 61.9545L8.30604 63.1401C14.079 49.7213 21.7734 40.2581 30.809 33.7307C39.8512 27.1985 50.3149 23.5502 61.7037 21.8836C84.5462 18.5407 110.889 23.1901 136.476 28.3203C161.904 33.4184 186.694 39.0243 205.944 37.2509C215.621 36.3594 224.072 33.5948 230.548 27.8345C237.037 22.0623 241.366 13.4412 243.102 1.19243L240.132 0.771339Z" fill="#D9D9D9"/>
</svg>
