<svg width="25" height="91" viewBox="0 0 25 91" fill="none" xmlns="http://www.w3.org/2000/svg">
<path opacity="0.1" d="M20.7621 90.481C21.5801 90.6124 22.3496 90.0557 22.4809 89.2378L24.6207 75.9084C24.752 75.0905 24.1954 74.3209 23.3775 74.1896C22.5595 74.0583 21.79 74.615 21.6587 75.4329L19.7566 87.2812L7.9083 85.3791C7.09035 85.2478 6.32082 85.8045 6.18951 86.6224C6.0582 87.4404 6.61483 88.2099 7.43279 88.3412L20.7621 90.481ZM17.0931 0.805144C-3.01621 16.0668 -2.09412 38.6629 3.55769 56.9543C6.39255 66.1289 10.4471 74.3523 13.7835 80.272C15.4535 83.2351 16.9481 85.6289 18.0273 87.2851C18.5671 88.1133 19.0033 88.7576 19.3061 89.1968C19.4575 89.4165 19.5755 89.5849 19.6565 89.6995C19.697 89.7568 19.7282 89.8006 19.7497 89.8307C19.7604 89.8457 19.7688 89.8573 19.7746 89.8654C19.7775 89.8694 19.7798 89.8726 19.7814 89.8749C19.7823 89.876 19.783 89.8771 19.7834 89.8777C19.7841 89.8785 19.7845 89.8791 20.9999 89C22.2152 88.1209 22.2154 88.1211 22.2154 88.121C22.2151 88.1207 22.215 88.1205 22.2145 88.1199C22.2137 88.1187 22.2122 88.1166 22.21 88.1136C22.2058 88.1077 22.1991 88.0984 22.1899 88.0856C22.1716 88.06 22.1436 88.0207 22.1064 87.9681C22.032 87.8628 21.9207 87.7039 21.7762 87.4943C21.4871 87.0749 21.0654 86.4522 20.5407 85.6471C19.4912 84.0366 18.0309 81.6982 16.397 78.7991C13.1254 72.9943 9.17547 64.9735 6.42398 56.0686C0.903102 38.201 0.325186 17.297 18.9067 3.19486L17.0931 0.805144Z" fill="black"/>
</svg>
