<svg width="340" height="107" viewBox="0 0 340 107" fill="none" xmlns="http://www.w3.org/2000/svg">
<path opacity="0.1" d="M338.678 1.60207C338.602 0.777137 337.872 0.170009 337.047 0.246012L323.604 1.48455C322.779 1.56056 322.172 2.29091 322.248 3.11584C322.324 3.94078 323.054 4.5479 323.879 4.4719L335.829 3.37098L336.93 15.3204C337.006 16.1453 337.736 16.7524 338.561 16.6764C339.386 16.6004 339.993 15.8701 339.917 15.0451L338.678 1.60207ZM0.833458 1.64643C17.5977 51.5714 66.1452 94.9864 128.449 104.313C190.839 113.652 266.77 88.7931 338.338 2.69856L336.031 0.780808C264.973 86.2615 190.02 110.496 128.893 101.346C67.6785 92.1825 20.075 49.5245 3.67741 0.691463L0.833458 1.64643Z" fill="#D9D9D9"/>
</svg>
