<svg xmlns="http://www.w3.org/2000/svg" width="71" height="70" fill="none" viewBox="0 0 71 70"><path fill="#D9D9D9" fill-rule="evenodd" d="M48.7763 22.5167C49.1865 22.107 49.7425 21.877 50.3221 21.877C50.9018 21.877 51.4578 22.107 51.868 22.5167L62.8055 33.4542C63.2151 33.8644 63.4452 34.4203 63.4452 35C63.4452 35.5797 63.2151 36.1357 62.8055 36.5459L51.868 47.4834C51.6677 47.6983 51.4262 47.8707 51.1579 47.9902C50.8896 48.1098 50.5999 48.1741 50.3062 48.1793C50.0125 48.1844 49.7207 48.1304 49.4483 48.0204C49.1759 47.9104 48.9285 47.7466 48.7208 47.5389C48.5131 47.3312 48.3493 47.0837 48.2393 46.8114C48.1293 46.539 48.0752 46.2472 48.0804 45.9535C48.0856 45.6598 48.1499 45.3701 48.2695 45.1018C48.389 44.8335 48.5614 44.592 48.7763 44.3917L55.9805 37.1875H8.75964C8.17948 37.1875 7.62308 36.9571 7.21285 36.5468C6.80261 36.1366 6.57214 35.5802 6.57214 35C6.57214 34.4199 6.80261 33.8635 7.21285 33.4532C7.62308 33.043 8.17948 32.8125 8.75964 32.8125H55.9805L48.7763 25.6084C48.3667 25.1982 48.1366 24.6422 48.1366 24.0625C48.1366 23.4828 48.3667 22.9269 48.7763 22.5167Z" clip-rule="evenodd"/></svg>