<svg width="25" height="90" viewBox="0 0 25 90" fill="none" xmlns="http://www.w3.org/2000/svg">
<path opacity="0.3" d="M20.7621 89.7189C21.5801 89.8502 22.3496 89.2936 22.4809 88.4756L24.6207 75.1463C24.752 74.3283 24.1954 73.5588 23.3775 73.4275C22.5595 73.2962 21.79 73.8528 21.6587 74.6708L19.7566 86.5191L7.9083 84.617C7.09035 84.4857 6.32082 85.0423 6.18951 85.8603C6.0582 86.6782 6.61483 87.4478 7.43279 87.5791L20.7621 89.7189ZM17.0931 0.0429984C-3.01621 15.3046 -2.09412 37.9007 3.55769 56.1921C6.39254 65.3668 10.4471 73.5902 13.7835 79.5099C15.4535 82.473 16.9481 84.8667 18.0273 86.5229C18.5671 87.3512 19.0033 87.9954 19.3061 88.4347C19.4575 88.6543 19.5755 88.8227 19.6565 88.9373C19.697 88.9946 19.7282 89.0385 19.7497 89.0685C19.7604 89.0835 19.7688 89.0951 19.7746 89.1032C19.7775 89.1073 19.7798 89.1104 19.7814 89.1127C19.7823 89.1139 19.783 89.1149 19.7834 89.1155C19.7841 89.1164 19.7845 89.117 20.9999 88.2379C22.2152 87.3587 22.2154 87.3589 22.2154 87.3589C22.2151 87.3586 22.215 87.3583 22.2145 87.3577C22.2137 87.3565 22.2122 87.3544 22.21 87.3515C22.2058 87.3456 22.1991 87.3362 22.1899 87.3234C22.1716 87.2979 22.1436 87.2586 22.1064 87.2059C22.032 87.1006 21.9207 86.9418 21.7762 86.7321C21.4871 86.3128 21.0654 85.6901 20.5407 84.885C19.4912 83.2745 18.0309 80.936 16.397 78.0369C13.1254 72.2322 9.17547 64.2113 6.42398 55.3065C0.903102 37.4388 0.325187 16.5349 18.9067 2.43271L17.0931 0.0429984Z" fill="#202022"/>
</svg>
