<svg width="73" height="74" viewBox="0 0 73 74" fill="none" xmlns="http://www.w3.org/2000/svg">
<path fill-rule="evenodd" clip-rule="evenodd" d="M22.6142 49.8809C22.2162 50.3024 21.6672 50.5487 21.0878 50.5657C20.5083 50.5826 19.9458 50.3689 19.5239 49.9714L8.27088 39.3588C7.8494 38.9608 7.60313 38.4118 7.58616 37.8324C7.56919 37.2529 7.78291 36.6904 8.18037 36.2685L18.793 25.0155C18.9869 24.7948 19.2232 24.6154 19.488 24.488C19.7527 24.3607 20.0403 24.2879 20.3338 24.2742C20.6272 24.2604 20.9204 24.3058 21.1959 24.4078C21.4714 24.5098 21.7235 24.6663 21.9372 24.8678C22.1509 25.0694 22.3219 25.3119 22.4398 25.581C22.5578 25.85 22.6203 26.14 22.6237 26.4338C22.6271 26.7275 22.5714 27.019 22.4597 27.2907C22.3481 27.5624 22.1828 27.8088 21.9739 28.0153L14.9837 35.4273L62.1843 34.0449C62.7642 34.028 63.3271 34.242 63.7492 34.6401C64.1712 35.0381 64.4179 35.5875 64.4349 36.1675C64.4518 36.7474 64.2378 37.3103 63.8397 37.7323C63.4417 38.1544 62.8923 38.4011 62.3123 38.4181L15.1117 39.8004L22.5237 46.7906C22.9452 47.1886 23.1915 47.7376 23.2084 48.317C23.2254 48.8965 23.0117 49.459 22.6142 49.8809Z" fill="#D9D9D9"/>
</svg>
