<svg width="472" height="525" viewBox="0 0 472 525" fill="none" xmlns="http://www.w3.org/2000/svg">
<path opacity="0.1" d="M27.3585 523.186H26.3585V524.186H27.3585V523.186ZM73.9177 523.186V524.186H74.9177V523.186H73.9177ZM73.9177 442.171H74.9177V441.171H73.9177V442.171ZM1 442.171V441.171H0V442.171H1ZM1 493.901H0V494.901H1V493.901ZM27.3585 493.901H28.3585V492.901H27.3585V493.901ZM225.897 273.315H226.897V272.315H225.897V273.315ZM225.897 523.186H224.897V524.186H225.897V523.186ZM272.461 523.186V524.186H273.461V523.186H272.461ZM272.461 221.581H273.461V220.581H272.461V221.581ZM1 221.581V220.581H0V221.581H1ZM1 273.315H0V274.315H1V273.315ZM126.626 383.61H127.626V382.61H126.626V383.61ZM126.626 523.186H125.626V524.186H126.626V523.186ZM173.194 523.186V524.186H174.194V523.186H173.194ZM173.194 331.876H174.194V330.876H173.194V331.876ZM1 331.876V330.876H0V331.876H1ZM1 383.61H0V384.61H1V383.61ZM325.165 163.03H326.165V162.03H325.165V163.03ZM325.165 523.186H324.165V524.186H325.165V523.186ZM371.733 523.186V524.186H372.733V523.186H371.733ZM371.733 111.29H372.733V110.29H371.733V111.29ZM1 111.29V110.29H0V111.29H1ZM1 163.03H0V164.03H1V163.03ZM424.432 52.7344H425.432V51.7344H424.432V52.7344ZM424.432 523.186H423.432V524.186H424.432V523.186ZM471 523.186V524.186H472V523.186H471ZM471 1H472V0H471V1ZM1 1V0H0V1H1ZM1 52.7344H0V53.7344H1V52.7344ZM27.3585 524.186H73.9177V522.186H27.3585V524.186ZM74.9177 523.186V442.171H72.9177V523.186H74.9177ZM73.9177 441.171H1V443.171H73.9177V441.171ZM0 442.171V493.901H2V442.171H0ZM1 494.901H27.3585V492.901H1V494.901ZM26.3585 493.901V523.186H28.3585V493.901H26.3585ZM224.897 273.315V523.186H226.897V273.315H224.897ZM225.897 524.186H272.461V522.186H225.897V524.186ZM273.461 523.186V221.581H271.461V523.186H273.461ZM272.461 220.581H1V222.581H272.461V220.581ZM0 221.581V273.315H2V221.581H0ZM1 274.315H225.897V272.315H1V274.315ZM125.626 383.61V523.186H127.626V383.61H125.626ZM126.626 524.186H173.194V522.186H126.626V524.186ZM174.194 523.186V331.876H172.194V523.186H174.194ZM173.194 330.876H1V332.876H173.194V330.876ZM0 331.876V383.61H2V331.876H0ZM1 384.61H126.626V382.61H1V384.61ZM324.165 163.03V523.186H326.165V163.03H324.165ZM325.165 524.186H371.733V522.186H325.165V524.186ZM372.733 523.186V111.29H370.733V523.186H372.733ZM371.733 110.29H1V112.29H371.733V110.29ZM0 111.29V163.03H2V111.29H0ZM1 164.03H325.165V162.03H1V164.03ZM423.432 52.7344V523.186H425.432V52.7344H423.432ZM424.432 524.186H471V522.186H424.432V524.186ZM472 523.186V1H470V523.186H472ZM471 0H1V2H471V0ZM0 1V52.7344H2V1H0ZM1 53.7344H424.432V51.7344H1V53.7344Z" fill="white"/>
</svg>
