<svg xmlns="http://www.w3.org/2000/svg" width="51" height="50" fill="none" viewBox="0 0 51 50"><path fill="#D9D9D9" d="M37.5096 37.5C38.3384 37.5 39.1332 37.1708 39.7193 36.5847C40.3053 35.9987 40.6346 35.2038 40.6346 34.375V26.7437C40.6346 25.9149 40.3053 25.1201 39.7193 24.534C39.1332 23.948 38.3384 23.6188 37.5096 23.6188H33.1721C33.1721 22.5219 33.2377 21.4219 33.3658 20.325C33.5596 19.1625 33.8846 18.1281 34.3346 17.225C34.7877 16.3188 35.369 15.6094 36.0815 15.0906C36.7908 14.5094 37.694 14.2188 38.794 14.2188V9.375C36.9846 9.375 35.4033 9.7625 34.0439 10.5375C32.6964 11.3046 31.5378 12.3639 30.6533 13.6375C29.7656 15.0416 29.1113 16.5803 28.7158 18.1938C28.3173 19.9743 28.1223 21.7942 28.1346 23.6188V34.375C28.1346 35.2038 28.4638 35.9987 29.0499 36.5847C29.6359 37.1708 30.4308 37.5 31.2596 37.5H37.5096ZM18.7596 37.5C19.5884 37.5 20.3832 37.1708 20.9693 36.5847C21.5553 35.9987 21.8846 35.2038 21.8846 34.375V26.7437C21.8846 25.9149 21.5553 25.1201 20.9693 24.534C20.3832 23.948 19.5884 23.6188 18.7596 23.6188H14.4221C14.4221 22.5219 14.4877 21.4219 14.6158 20.325C14.8096 19.1625 15.1346 18.1281 15.5846 17.225C16.0377 16.3188 16.619 15.6094 17.3315 15.0906C18.0408 14.5094 18.9439 14.2188 20.0439 14.2188V9.375C18.2346 9.375 16.6533 9.7625 15.2939 10.5375C13.9464 11.3046 12.7878 12.3639 11.9033 13.6375C11.0156 15.0416 10.3613 16.5803 9.96583 18.1938C9.56734 19.9743 9.37234 21.7942 9.38457 23.6188V34.375C9.38457 35.2038 9.71381 35.9987 10.2999 36.5847C10.8859 37.1708 11.6808 37.5 12.5096 37.5H18.7596Z"/></svg>