<svg width="192" height="239" viewBox="0 0 192 239" fill="none" xmlns="http://www.w3.org/2000/svg">
<g opacity="0.05">
<path d="M1 6.23405V6.23405C5.75012 -0.0315183 14.0818 -0.745559 19.6097 4.63836C20.1147 5.12892 20.586 5.66309 21.0188 6.23405C25.7689 12.4996 34.0994 13.215 39.6273 7.8311C40.1311 7.34054 40.6024 6.80637 41.0364 6.23405V6.22588C45.7865 -0.039694 54.1194 -0.752372 59.6473 4.63291C60.1499 5.12347 60.62 5.65492 61.0528 6.22588C65.8017 12.4914 74.1321 13.2055 79.6589 7.82429C80.1639 7.33237 80.6351 6.7982 81.0692 6.22588V6.2177C85.8205 -0.0465075 94.1533 -0.760548 99.6813 4.62473C100.185 5.1153 100.654 5.64674 101.087 6.2177L101.094 6.22724C105.844 12.4928 114.176 13.2055 119.703 7.82157C120.206 7.331 120.676 6.7982 121.109 6.22724L121.12 6.21225C125.871 -0.0519582 134.203 -0.765999 139.731 4.61928C140.233 5.10985 140.704 5.64129 141.136 6.21225L141.145 6.22451C145.897 12.4901 154.23 13.2014 159.757 7.81611C160.259 7.32691 160.728 6.79411 161.161 6.22451L161.174 6.2068C165.926 -0.0574091 174.259 -0.770087 179.785 4.61656C180.287 5.10576 180.757 5.63856 181.188 6.2068L181.206 6.22996C183.708 9.54398 187.367 11.4463 191.214 11.4354" stroke="white" stroke-width="2"/>
<path d="M1 232.5V232.5C5.75012 226.235 14.0818 225.521 19.6097 230.905C20.1147 231.395 20.586 231.929 21.0188 232.5C25.7689 238.766 34.0994 239.481 39.6273 234.097C40.1311 233.607 40.6024 233.073 41.0364 232.5V232.492C45.7865 226.227 54.1194 225.514 59.6473 230.899C60.1499 231.39 60.62 231.922 61.0528 232.492C65.8017 238.758 74.1321 239.472 79.6589 234.09C80.1639 233.599 80.6351 233.064 81.0692 232.492V232.484C85.8205 226.22 94.1533 225.506 99.6813 230.891C100.185 231.383 100.654 231.914 101.087 232.484L101.094 232.493C105.844 238.759 114.176 239.472 119.703 234.088C120.206 233.597 120.676 233.064 121.109 232.493L121.12 232.478C125.871 226.214 134.203 225.5 139.731 230.885C140.233 231.376 140.704 231.907 141.136 232.478L141.145 232.491C145.897 238.756 154.23 239.468 159.757 234.082C160.259 233.593 160.728 233.06 161.161 232.491L161.174 232.473C165.926 226.21 174.259 225.497 179.785 230.883C180.287 231.373 180.757 231.905 181.188 232.473L181.206 232.496C183.708 235.81 187.367 237.712 191.214 237.702" stroke="white" stroke-width="2"/>
<path d="M1 190.796V190.796C5.75012 184.529 14.0818 183.815 19.6097 189.199C20.1147 189.69 20.586 190.224 21.0188 190.796C25.7689 197.062 34.0994 197.776 39.6273 192.393C40.1311 191.903 40.6024 191.367 41.0364 190.796V190.788C45.7865 184.523 54.1194 183.81 59.6473 189.194C60.1499 189.686 60.62 190.217 61.0528 190.788C65.8017 197.054 74.1321 197.768 79.6589 192.385C80.1639 191.895 80.6351 191.361 81.0692 190.788V190.78C85.8205 184.514 94.1533 183.802 99.6813 189.187C100.185 189.678 100.654 190.209 101.087 190.78L101.094 190.79C105.844 197.054 114.176 197.768 119.703 192.384C120.206 191.893 120.676 191.361 121.109 190.79L121.12 190.773C125.871 184.51 134.203 183.796 139.731 189.18C140.233 189.672 140.704 190.204 141.136 190.773L141.145 190.787C145.897 197.051 154.23 197.764 159.757 192.377C160.259 191.888 160.728 191.356 161.161 190.787L161.174 190.768C165.926 184.505 174.259 183.792 179.785 189.179C180.287 189.668 180.757 190.201 181.188 190.768L181.206 190.792C183.708 194.105 187.367 196.007 191.214 195.996" stroke="white" stroke-width="2"/>
<path d="M1 212.092V212.092C5.75012 205.825 14.0818 205.111 19.6097 210.495C20.1147 210.986 20.586 211.52 21.0188 212.092C25.7689 218.358 34.0994 219.072 39.6273 213.689C40.1311 213.199 40.6024 212.664 41.0364 212.092V212.084C45.7865 205.818 54.1194 205.106 59.6473 210.49C60.1499 210.982 60.62 211.513 61.0528 212.084C65.8017 218.349 74.1321 219.064 79.6589 213.681C80.1639 213.19 80.6351 212.656 81.0692 212.084V212.076C85.8205 205.81 94.1533 205.097 99.6813 210.483C100.185 210.973 100.654 211.505 101.087 212.076L101.094 212.085C105.844 218.349 114.176 219.064 119.703 213.68C120.206 213.189 120.676 212.656 121.109 212.085L121.12 212.07C125.871 205.806 134.203 205.092 139.731 210.476C140.233 210.968 140.704 211.499 141.136 212.07L141.145 212.083C145.897 218.348 154.23 219.059 159.757 213.673C160.259 213.184 160.728 212.652 161.161 212.083L161.174 212.063C165.926 205.801 174.259 205.088 179.785 210.475C180.287 210.964 180.757 211.497 181.188 212.063L181.206 212.088C183.708 215.401 187.367 217.303 191.214 217.293" stroke="white" stroke-width="2"/>
<path d="M1 170.388V170.388C5.75012 164.123 14.0818 163.409 19.6097 168.793C20.1147 169.283 20.586 169.817 21.0188 170.388C25.7689 176.655 34.0994 177.369 39.6273 171.985C40.1311 171.495 40.6024 170.961 41.0364 170.388V170.38C45.7865 164.114 54.1194 163.402 59.6473 168.787C60.1499 169.278 60.62 169.81 61.0528 170.38C65.8017 176.646 74.1321 177.361 79.6589 171.978C80.1639 171.487 80.6351 170.952 81.0692 170.38V170.372C85.8205 164.108 94.1533 163.394 99.6813 168.779C100.185 169.271 100.654 169.802 101.087 170.372L101.094 170.381C105.844 176.647 114.176 177.36 119.703 171.976C120.206 171.487 120.676 170.952 121.109 170.381L121.12 170.366C125.871 164.102 134.203 163.388 139.731 168.773C140.233 169.264 140.704 169.795 141.136 170.366L141.145 170.379C145.897 176.644 154.23 177.356 159.757 171.97C160.259 171.481 160.728 170.948 161.161 170.379L161.174 170.361C165.926 164.098 174.259 163.385 179.785 168.771C180.287 169.261 180.757 169.793 181.188 170.361L181.206 170.384C183.708 173.698 187.367 175.6 191.214 175.59" stroke="white" stroke-width="2"/>
<path d="M1 149.98V149.98C5.75012 143.715 14.0818 142.999 19.6097 148.383C20.1147 148.874 20.586 149.408 21.0188 149.98C25.7689 156.246 34.0994 156.96 39.6273 151.577C40.1311 151.087 40.6024 150.552 41.0364 149.98V149.972C45.7865 143.706 54.1194 142.994 59.6473 148.378C60.1499 148.87 60.62 149.401 61.0528 149.972C65.8017 156.237 74.1321 156.952 79.6589 151.569C80.1639 151.078 80.6351 150.544 81.0692 149.972V149.964C85.8205 143.7 94.1533 142.985 99.6813 148.371C100.185 148.861 100.654 149.393 101.087 149.964L101.094 149.973C105.844 156.237 114.176 156.952 119.703 151.568C120.206 151.077 120.676 150.544 121.109 149.973L121.12 149.958C125.871 143.694 134.203 142.98 139.731 148.364C140.233 148.856 140.704 149.387 141.136 149.958L141.145 149.971C145.897 156.236 154.23 156.947 159.757 151.562C160.259 151.073 160.728 150.54 161.161 149.971L161.174 149.951C165.926 143.689 174.259 142.976 179.785 148.363C180.287 148.852 180.757 149.385 181.188 149.951L181.206 149.976C183.708 153.289 187.367 155.191 191.214 155.181" stroke="white" stroke-width="2"/>
<path d="M1 129.571V129.571C5.75012 123.305 14.0818 122.591 19.6097 127.975C20.1147 128.465 20.586 129 21.0188 129.571C25.7689 135.837 34.0994 136.551 39.6273 131.169C40.1311 130.677 40.6024 130.143 41.0364 129.571V129.562C45.7865 123.298 54.1194 122.584 59.6473 127.969C60.1499 128.46 60.62 128.993 61.0528 129.562C65.8017 135.828 74.1321 136.543 79.6589 131.161C80.1639 130.67 80.6351 130.135 81.0692 129.562V129.554C85.8205 123.29 94.1533 122.576 99.6813 127.961C100.185 128.453 100.654 128.985 101.087 129.554L101.094 129.564C105.844 135.829 114.176 136.542 119.703 131.158C120.206 130.669 120.676 130.135 121.109 129.564L121.12 129.549C125.871 123.284 134.203 122.57 139.731 127.956C140.233 128.446 140.704 128.978 141.136 129.549L141.145 129.561C145.897 135.827 154.23 136.539 159.757 131.153C160.259 130.663 160.728 130.131 161.161 129.561L161.174 129.543C165.926 123.28 174.259 122.568 179.785 127.953C180.287 128.444 180.757 128.975 181.188 129.543L181.206 129.566C183.708 132.88 187.367 134.783 191.214 134.772" stroke="white" stroke-width="2"/>
<path d="M1 109.164V109.164C5.75012 102.898 14.0818 102.184 19.6097 107.568C20.1147 108.059 20.586 108.593 21.0188 109.164C25.7689 115.429 34.0994 116.143 39.6273 110.761C40.1311 110.27 40.6024 109.736 41.0364 109.164V109.156C45.7865 102.89 54.1194 102.177 59.6473 107.563C60.1499 108.053 60.62 108.585 61.0528 109.156C65.8017 115.421 74.1321 116.135 79.6589 110.753C80.1639 110.262 80.6351 109.728 81.0692 109.156V109.147C85.8205 102.883 94.1533 102.169 99.6813 107.554C100.185 108.045 100.654 108.576 101.087 109.147L101.094 109.157C105.844 115.422 114.176 116.135 119.703 110.751C120.206 110.261 120.676 109.728 121.109 109.157L121.12 109.142C125.871 102.878 134.203 102.164 139.731 107.548C140.233 108.039 140.704 108.571 141.136 109.142L141.145 109.154C145.897 115.42 154.23 116.131 159.757 110.746C160.259 110.257 160.728 109.724 161.161 109.154L161.174 109.136C165.926 102.872 174.259 102.16 179.785 107.546C180.287 108.035 180.757 108.568 181.188 109.136L181.206 109.16C183.708 112.474 187.367 114.375 191.214 114.365" stroke="white" stroke-width="2"/>
<path d="M1 87.868V87.868C5.75012 81.6024 14.0818 80.8884 19.6097 86.2709C20.1147 86.7628 20.586 87.2956 21.0188 87.868C25.7689 94.1335 34.0994 94.8476 39.6273 89.465C40.1311 88.9745 40.6024 88.4403 41.0364 87.868V87.8598C45.7865 81.5942 54.1194 80.8815 59.6473 86.2668C60.1499 86.7574 60.62 87.2888 61.0528 87.8598C65.8017 94.1254 74.1321 94.8394 79.6589 89.4568C80.1639 88.9663 80.6351 88.4321 81.0692 87.8598V87.8516C85.8205 81.5874 94.1533 80.8734 99.6813 86.2586C100.185 86.7492 100.654 87.2807 101.087 87.8516L101.094 87.8611C105.844 94.1254 114.176 94.8394 119.703 89.4555C120.206 88.9649 120.676 88.4321 121.109 87.8611L121.12 87.8462C125.871 81.582 134.203 80.8679 139.731 86.2518C140.233 86.7438 140.704 87.2752 141.136 87.8462L141.145 87.8584C145.897 94.124 154.23 94.8353 159.757 89.45C160.259 88.9608 160.728 88.428 161.161 87.8584L161.174 87.8407C165.926 81.5765 174.259 80.8638 179.785 86.2505C180.287 86.7397 180.757 87.2725 181.188 87.8407L181.206 87.8639C183.708 91.1779 187.367 93.0788 191.214 93.0693" stroke="white" stroke-width="2"/>
<path d="M1 67.4599V67.4599C5.75012 61.193 14.0818 60.4789 19.6097 65.8628C20.1147 66.3534 20.586 66.8876 21.0188 67.4599C25.7689 73.7255 34.0994 74.4395 39.6273 69.0569C40.1311 68.565 40.6024 68.0308 41.0364 67.4599V67.4503C45.7865 61.1861 54.1194 60.4735 59.6473 65.8574C60.1499 66.3493 60.62 66.8807 61.0528 67.4503C65.8017 73.7159 74.1321 74.4313 79.6589 69.0488C80.1639 68.5582 80.6351 68.0227 81.0692 67.4503V67.4422C85.8205 61.178 94.1533 60.4639 99.6813 65.8492C100.185 66.3411 100.654 66.8726 101.087 67.4422L101.094 67.4517C105.844 73.7173 114.176 74.43 119.703 69.046C120.206 68.5568 120.676 68.0227 121.109 67.4517L121.12 67.4367C125.871 61.1725 134.203 60.4585 139.731 65.8438C140.233 66.3343 140.704 66.8671 141.136 67.4367L141.145 67.449C145.897 73.7146 154.23 74.4272 159.757 69.0406C160.259 68.5514 160.728 68.0186 161.161 67.449L161.174 67.4313C165.926 61.1684 174.259 60.4557 179.785 65.8424C180.287 66.3316 180.757 66.863 181.188 67.4313L181.206 67.4544C183.708 70.7685 187.367 72.6707 191.214 72.6598" stroke="white" stroke-width="2"/>
<path d="M1 47.0517V47.0517C5.75012 40.7861 14.0818 40.0721 19.6097 45.456C20.1147 45.9466 20.586 46.4807 21.0188 47.0517C25.7689 53.3172 34.0994 54.0327 39.6273 48.6487C40.1311 48.1582 40.6024 47.624 41.0364 47.0517V47.0435C45.7865 40.7779 54.1194 40.0653 59.6473 45.4505C60.1499 45.9411 60.62 46.4725 61.0528 47.0435C65.8017 53.3091 74.1321 54.0231 79.6589 48.6406C80.1639 48.15 80.6351 47.6158 81.0692 47.0435V47.0353C85.8205 40.7711 94.1533 40.0571 99.6813 45.4424C100.185 45.9329 100.654 46.4644 101.087 47.0353L101.094 47.0449C105.844 53.3104 114.176 54.0231 119.703 48.6392C120.206 48.1486 120.676 47.6158 121.109 47.0449L121.12 47.0299C125.871 40.7657 134.203 40.0516 139.731 45.4355C140.233 45.9275 140.704 46.4589 141.136 47.0299L141.145 47.0421C145.897 53.3077 154.23 54.019 159.757 48.6337C160.259 48.1445 160.728 47.6117 161.161 47.0421L161.174 47.0244C165.926 40.7602 174.259 40.0475 179.785 45.4342C180.287 45.9234 180.757 46.4562 181.188 47.0244L181.206 47.0476C183.708 50.3616 187.367 52.2625 191.214 52.253" stroke="white" stroke-width="2"/>
<path d="M1 26.6435V26.6435C5.75012 20.3765 14.0818 19.6625 19.6097 25.0464C20.1147 25.537 20.586 26.0712 21.0188 26.6435C25.7689 32.909 34.0994 33.6231 39.6273 28.2405C40.1311 27.7486 40.6024 27.2144 41.0364 26.6435V26.6353C45.7865 20.3697 54.1194 19.6571 59.6473 25.041C60.1499 25.5329 60.62 26.0643 61.0528 26.6353C65.8017 32.8995 74.1321 33.6149 79.6589 28.2324C80.1639 27.7418 80.6351 27.2063 81.0692 26.6353V26.6258C85.8205 20.3616 94.1533 19.6475 99.6813 25.0342C100.185 25.5247 100.654 26.0562 101.087 26.6258L101.094 26.6367C105.844 32.9009 114.176 33.6135 119.703 28.2296C120.206 27.7404 120.676 27.2063 121.109 26.6367L121.12 26.6203C125.871 20.3561 134.203 19.6421 139.731 25.0273C140.233 25.5179 140.704 26.0507 141.136 26.6203L141.145 26.6339C145.897 32.8981 154.23 33.6108 159.757 28.2242C160.259 27.735 160.728 27.2035 161.161 26.6339L161.174 26.6149C165.926 20.352 174.259 19.6393 179.785 25.026C180.287 25.5152 180.757 26.0466 181.188 26.6149L181.206 26.6394C183.708 29.952 187.367 31.8543 191.214 31.8434" stroke="white" stroke-width="2"/>
</g>
</svg>
